PathFileType	4	(X/Y/Z)	data/BAA/BAA01/Baseline/Walk05.trc
DataRate	CameraRate	NumFrames	NumMarkers	Units	OrigDataRate	OrigDataStartFrame	OrigNumFrames
200.0	200.0	10	12	m	200.0	590	945
Frame#	Time	RASI			SPL6			LKNE			RHIP			LASI			RKNE			RTOE			LTOE			TAIL			LHIP			LANK			RANK			
		X1	Y1	Z1	X2	Y2	Z2	X3	Y3	Z3	X4	Y4	Z4	X5	Y5	Z5	X6	Y6	Z6	X7	Y7	Z7	X8	Y8	Z8	X9	Y9	Z9	X10	Y10	Z10	X11	Y11	Z11	X12	Y12	Z12	

591	2.95	0.02322582622646678	0.06411561250664628	0.0222635118629121	0.02265206380224294	0.07689701875386558	0.003913078164258016	0.02666467754801993	0.03880883223065226	-0.02671420278897284	0.00554028324511246	0.05679835761530296	0.01944998443570674	0.02489352921385793	0.06625540508094237	-0.01672331666218546	0.02579150658752393	0.03236823436123969	0.02503163240133631	0.01280242050573724	0.006399785520741239	0.01901013431246366	-0.007360506427501486	0.02465862285909489	-0.02539050011454841	-0.004434270232733538	0.0592513224439119	0.001416011549122118	0.005808506035370907	0.05957640787342523	-0.01551368472754069	-0.007576946767348759	0.03959897870632698	-0.02473650970495188	0.00320846351855856	0.01709737878182848	0.01340784254253244	
592	2.955	0.0248750691899054	0.06422602127674802	0.02208174019605554	0.02440266037586967	0.07705574029084761	0.003832952751293613	0.02893874284398018	0.03940929109633982	-0.02716716956802049	0.007165207264527284	0.05698582448656248	0.01921146605676921	0.02678366242175147	0.06650977368957331	-0.01684881308867989	0.02710841915296016	0.03245311543073771	0.02518334527012999	0.01293397449519957	0.006539552844466858	0.01894439551969104	-0.001660860371366001	0.02527202537569069	-0.02557798830915383	-0.002657179933964679	0.05941768905167499	0.001124277096900387	0.007714964694956126	0.05972791299919151	-0.01567769763522301	-0.004219322846066802	0.03970569394431925	-0.02495993022630158	0.003709833488000648	0.01757995272690318	0.0133284084736088	
593	2.96	0.02649609740004514	0.0643702214884533	0.02188821642343281	0.02615796518975697	0.07723658165574619	0.003743749205153981	0.03125543440352641	0.03998718694661408	-0.02758667550206035	0.008768343556040378	0.05721805731452428	0.0189607213511068	0.02869331766350726	0.06678953584357157	-0.01701265093096632	0.02842748973802193	0.03257338452384671	0.02533520208834138	0.01306171150723036	0.006674785323418026	0.01886541554936547	0.004040888565922021	0.02557233977216766	-0.02574256028779735	-0.0008740719772267965	0.05958317814605534	0.0007609325161702482	0.009650815527703914	0.05984428387693156	-0.01588943075091221	-0.0007953589119442523	0.03915637524223681	-0.02515512917567293	0.004228361942366711	0.01805263156545596	0.01324602280229774	
594	2.965	0.02808829910683433	0.06453247806245611	0.02168883013975907	0.0279112668694655	0.07743086886597318	0.003648900382793926	0.0336229475849256	0.0405276284247321	-0.02795192624420995	0.01035315565400246	0.05747386485948743	0.01870129442704564	0.03062305372811419	0.06709030568661344	-0.01721195665402132	0.02975137312228479	0.0327123326077952	0.02548100033439782	0.01318913022013113	0.006814971571574715	0.0187831664884128	0.009687770374129781	0.0255853374058915	-0.0258624079989001	0.000913001905270928	0.05973090515865159	0.0003346172108906017	0.01161555591852541	0.05991789190987246	-0.01614697930265279	0.002738473210015037	0.03798800371196313	-0.02528402913402076	0.00476867785016933	0.01849796683104392	0.01314173945642339	
595	2.97	0.02965357328515394	0.06469798451356537	0.02148894215780375	0.02965596015724702	0.07762905901611616	0.003549356969808571	0.03604291693969609	0.04102555068539552	-0.02824933199842815	0.01192607298256881	0.05772741760403314	0.01843118797932343	0.03257031897870408	0.06740832262192985	-0.01744165944481377	0.03108293687713412	0.03285404052775221	0.02561553144192325	0.01331867923139136	0.006966776715009487	0.01870389382379575	0.01525403340150263	0.02534995217838072	-0.0259173449534545	0.002707650400952898	0.05984898111362465	-0.0001417312031997056	0.01360595323154893	0.0599495449000799	-0.01644587399042859	0.006439155889885562	0.03629920046311842	-0.02532378019345777	0.005335672206446793	0.01890751127751853	0.01300367497289276	
596	2.975	0.03119619372715288	0.06485391303470886	0.02129330990073649	0.0313884562503159	0.07782282757750991	0.003446394938606573	0.03850933931498637	0.04148357907710774	-0.02847134134825018	0.01349659592811665	0.05795042490276269	0.0181417077002393	0.03452985780861414	0.06773925410901906	-0.0176927357112605	0.03242525666571246	0.0329849809394653	0.02573465942701144	0.01345228820137169	0.007133092389263252	0.01863065670859654	0.02074071994334667	0.02491587357220384	-0.02589257672095294	0.004518193129978058	0.05993109179268559	-0.0006530603317743171	0.01561961643327762	0.05994678449587335	-0.01677817004026487	0.01036011860990209	0.0342310580466924	-0.02526299015628929	0.005931233580899313	0.01928663261577069	0.01283096002717112	
597	2.98	0.03272289863911623	0.06498991707441966	0.02110559115795704	0.03310879480291411	0.07800536325498947	0.00334188502716688	0.04100968837829377	0.04190804182805057	-0.02861466500757058	0.01507578188324408	0.05811870537321098	0.01782253912034628	0.03649463036585742	0.06807669658040691	-0.01795203631676425	0.03378124879311938	0.03309505964950284	0.02583524715433489	0.01359264187349267	0.007312911393419943	0.01856459745872936	0.02616735250588471	0.02433867441388257	-0.02577951737728375	0.006351871521255936	0.05997507206438678	-0.001185167079508217	0.01765568478600178	0.05991912557345196	-0.01713166363263858	0.01453542392861279	0.03194226871780088	-0.02509334781831005	0.006553756916774098	0.01964751755811918	0.01263100758242956	
598	2.985	0.034242603374996	0.06509811219685384	0.02092769746103907	0.03481919210482669	0.07817030663765301	0.003237764105769161	0.04352796942060538	0.04230488381314781	-0.02867840438621856	0.0166730034453209	0.05822020510655069	0.01747172308190428	0.03845767159051344	0.06841428801180592	-0.01820705051803082	0.03515310264033825	0.0331778646104723	0.02591480003262729	0.01374409464114248	0.00750034153029588	0.01850432630908097	0.03156179928224343	0.02367262073427592	-0.02557596021128585	0.008212318523374167	0.05998086415384631	-0.00172558078266348	0.01971242889032729	0.05987416304726727	-0.01749202591511295	0.01897550582407621	0.02958681038236381	-0.02481050609998929	0.007199728221803038	0.01999892508683198	0.01241675727813127	
599	2.99	0.03576541462708215	0.06517303986357316	0.02075956470894805	0.03652212884661656	0.07831192969077685	0.003135850512971399	0.04604842040577246	0.04267693677289247	-0.02866312830179002	0.01829383926317572	0.05825685595775675	0.01709987915778572	0.04041432459195222	0.0687494623821277	-0.01845277366702368	0.03654172535677609	0.03323005046052895	0.02597113341162324	0.01391185009373749	0.007683904226399588	0.01844340169378362	0.0369508179268988	0.02296239619364704	-0.0252858794013495	0.01010083705336507	0.05994846313091406	-0.002263117943198892	0.02178578096735135	0.05981656083184513	-0.01784700540328485	0.02366881557959649	0.02729408963388842	-0.02441909281720179	0.00786472510689977	0.02034451345125633	0.01220311044026916	
600	2.995	0.03730119420409173	0.06521177126152033	0.02059946678310703	0.03822081538386771	0.07842499802672749	0.00303732152941481	0.04855830399701356	0.04302325324105291	-0.02857230249896282	0.01994133622421812	0.05823792612765911	0.01672182685840525	0.04236317626514108	0.06908055464673223	-0.0186911271543959	0.03794665704990433	0.03325039399090989	0.02600265044424526	0.01409908052294152	0.007849895844019667	0.01837036920583778	0.04235267097544706	0.02223581579196252	-0.02491841202948625	0.01201707832119031	0.0598768540008423	-0.002788092753054822	0.02387050473957604	0.05974911740513523	-0.01819030979116134	0.02858388098564187	0.02515688993933375	-0.02393482008005476	0.008545630157602764	0.0206852909507719	0.01200165547095633	
